<?xml version="1.0" encoding="utf-8" standalone="no"?>
<!DOCTYPE svg PUBLIC "-//W3C//DTD SVG 1.1//EN"
  "http://www.w3.org/Graphics/SVG/1.1/DTD/svg11.dtd">
<svg xmlns:xlink="http://www.w3.org/1999/xlink" width="526.79952pt" height="231.59952pt" viewBox="0 0 526.79952 231.59952" xmlns="http://www.w3.org/2000/svg" version="1.1">
 <metadata>
  <rdf:RDF xmlns:dc="http://purl.org/dc/elements/1.1/" xmlns:cc="http://creativecommons.org/ns#" xmlns:rdf="http://www.w3.org/1999/02/22-rdf-syntax-ns#">
   <cc:Work>
    <dc:type rdf:resource="http://purl.org/dc/dcmitype/StillImage"/>
    <dc:date>2026-08-22T17:48:35.192330</dc:date>
    <dc:format>image/svg+xml</dc:format>
    <dc:creator>
     <cc:Agent>
      <dc:title>Matplotlib v3.10.0, https://matplotlib.org/</dc:title>
     </cc:Agent>
    </dc:creator>
   </cc:Work>
  </rdf:RDF>
 </metadata>
 <defs>
  <style type="text/css">*{stroke-linejoin: round; stroke-linecap: butt}</style>
 </defs>
 <g id="figure_1">
  <g id="patch_1">
   <path d="M 0 231.59952 
L 526.79952 231.59952 
L 526.79952 -0 
L 0 -0 
z
" style="fill: #ffffff"/>
  </g>
  <g id="axes_1">
   <g id="patch_2">
    <path d="M 39.04625 195.088739 
L 257.897098 195.088739 
L 257.897098 20.930438 
L 39.04625 20.930438 
z
" style="fill: #ffffff"/>
   </g>
   <g id="matplotlib.axis_1">
    <g id="xtick_1">
     <g id="line2d_1">
      <defs>
       <path id="m85f4773468" d="M 0 0 
L 0 3.5 
" style="stroke: #000000; stroke-width: 0.8"/>
      </defs>
      <g>
       <use xlink:href="#m85f4773468" x="41.482694" y="195.088739" style="stroke: #000000; stroke-width: 0.8"/>
      </g>
     </g>
     <g id="text_1">
      <text style="font-size: 9px; font-family: 'Arial', 'Helvetica', 'DejaVu Sans', sans-serif; text-anchor: middle" x="41.482694" y="208.53077" transform="rotate(-0 41.482694 208.53077)">−10.0</text>
     </g>
    </g>
    <g id="xtick_2">
     <g id="line2d_2">
      <g>
       <use xlink:href="#m85f4773468" x="69.285585" y="195.088739" style="stroke: #000000; stroke-width: 0.8"/>
      </g>
     </g>
     <g id="text_2">
      <text style="font-size: 9px; font-family: 'Arial', 'Helvetica', 'DejaVu Sans', sans-serif; text-anchor: middle" x="69.285585" y="208.53077" transform="rotate(-0 69.285585 208.53077)">−7.5</text>
     </g>
    </g>
    <g id="xtick_3">
     <g id="line2d_3">
      <g>
       <use xlink:href="#m85f4773468" x="97.088476" y="195.088739" style="stroke: #000000; stroke-width: 0.8"/>
      </g>
     </g>
     <g id="text_3">
      <text style="font-size: 9px; font-family: 'Arial', 'Helvetica', 'DejaVu Sans', sans-serif; text-anchor: middle" x="97.088476" y="208.53077" transform="rotate(-0 97.088476 208.53077)">−5.0</text>
     </g>
    </g>
    <g id="xtick_4">
     <g id="line2d_4">
      <g>
       <use xlink:href="#m85f4773468" x="124.891366" y="195.088739" style="stroke: #000000; stroke-width: 0.8"/>
      </g>
     </g>
     <g id="text_4">
      <text style="font-size: 9px; font-family: 'Arial', 'Helvetica', 'DejaVu Sans', sans-serif; text-anchor: middle" x="124.891366" y="208.53077" transform="rotate(-0 124.891366 208.53077)">−2.5</text>
     </g>
    </g>
    <g id="xtick_5">
     <g id="line2d_5">
      <g>
       <use xlink:href="#m85f4773468" x="152.694257" y="195.088739" style="stroke: #000000; stroke-width: 0.8"/>
      </g>
     </g>
     <g id="text_5">
      <text style="font-size: 9px; font-family: 'Arial', 'Helvetica', 'DejaVu Sans', sans-serif; text-anchor: middle" x="152.694257" y="208.53077" transform="rotate(-0 152.694257 208.53077)">0.0</text>
     </g>
    </g>
    <g id="xtick_6">
     <g id="line2d_6">
      <g>
       <use xlink:href="#m85f4773468" x="180.497148" y="195.088739" style="stroke: #000000; stroke-width: 0.8"/>
      </g>
     </g>
     <g id="text_6">
      <text style="font-size: 9px; font-family: 'Arial', 'Helvetica', 'DejaVu Sans', sans-serif; text-anchor: middle" x="180.497148" y="208.53077" transform="rotate(-0 180.497148 208.53077)">2.5</text>
     </g>
    </g>
    <g id="xtick_7">
     <g id="line2d_7">
      <g>
       <use xlink:href="#m85f4773468" x="208.300039" y="195.088739" style="stroke: #000000; stroke-width: 0.8"/>
      </g>
     </g>
     <g id="text_7">
      <text style="font-size: 9px; font-family: 'Arial', 'Helvetica', 'DejaVu Sans', sans-serif; text-anchor: middle" x="208.300039" y="208.53077" transform="rotate(-0 208.300039 208.53077)">5.0</text>
     </g>
    </g>
    <g id="xtick_8">
     <g id="line2d_8">
      <g>
       <use xlink:href="#m85f4773468" x="236.10293" y="195.088739" style="stroke: #000000; stroke-width: 0.8"/>
      </g>
     </g>
     <g id="text_8">
      <text style="font-size: 9px; font-family: 'Arial', 'Helvetica', 'DejaVu Sans', sans-serif; text-anchor: middle" x="236.10293" y="208.53077" transform="rotate(-0 236.10293 208.53077)">7.5</text>
     </g>
    </g>
    <g id="text_9">
     <!-- Daily-mean coast-normal wind (m s$^{-1}$) -->
     <g transform="translate(71.611674 222.41952)">
      <text>
       <tspan x="0" y="-0.960938" style="font-size: 9px; font-family: 'Arial'">D</tspan>
       <tspan x="6.499512" y="-0.960938" style="font-size: 9px; font-family: 'Arial'">a</tspan>
       <tspan x="11.504883" y="-0.960938" style="font-size: 9px; font-family: 'Arial'">i</tspan>
       <tspan x="13.504395" y="-0.960938" style="font-size: 9px; font-family: 'Arial'">l</tspan>
       <tspan x="15.503906" y="-0.960938" style="font-size: 9px; font-family: 'Arial'">y</tspan>
       <tspan x="20.003906" y="-0.960938" style="font-size: 9px; font-family: 'Arial'">-</tspan>
       <tspan x="23.000977" y="-0.960938" style="font-size: 9px; font-family: 'Arial'">m</tspan>
       <tspan x="30.498047" y="-0.960938" style="font-size: 9px; font-family: 'Arial'">e</tspan>
       <tspan x="35.503418" y="-0.960938" style="font-size: 9px; font-family: 'Arial'">a</tspan>
       <tspan x="40.508789" y="-0.960938" style="font-size: 9px; font-family: 'Arial'">n</tspan>
       <tspan x="45.51416" y="-0.960938" style="font-size: 9px; font-family: 'Arial'"> </tspan>
       <tspan x="48.014648" y="-0.960938" style="font-size: 9px; font-family: 'Arial'">c</tspan>
       <tspan x="52.514648" y="-0.960938" style="font-size: 9px; font-family: 'Arial'">o</tspan>
       <tspan x="57.52002" y="-0.960938" style="font-size: 9px; font-family: 'Arial'">a</tspan>
       <tspan x="62.525391" y="-0.960938" style="font-size: 9px; font-family: 'Arial'">s</tspan>
       <tspan x="67.025391" y="-0.960938" style="font-size: 9px; font-family: 'Arial'">t</tspan>
       <tspan x="69.525879" y="-0.960938" style="font-size: 9px; font-family: 'Arial'">-</tspan>
       <tspan x="72.522949" y="-0.960938" style="font-size: 9px; font-family: 'Arial'">n</tspan>
       <tspan x="77.52832" y="-0.960938" style="font-size: 9px; font-family: 'Arial'">o</tspan>
       <tspan x="82.533691" y="-0.960938" style="font-size: 9px; font-family: 'Arial'">r</tspan>
       <tspan x="85.530762" y="-0.960938" style="font-size: 9px; font-family: 'Arial'">m</tspan>
       <tspan x="93.027832" y="-0.960938" style="font-size: 9px; font-family: 'Arial'">a</tspan>
       <tspan x="98.033203" y="-0.960938" style="font-size: 9px; font-family: 'Arial'">l</tspan>
       <tspan x="100.032715" y="-0.960938" style="font-size: 9px; font-family: 'Arial'"> </tspan>
       <tspan x="102.533203" y="-0.960938" style="font-size: 9px; font-family: 'Arial'">w</tspan>
       <tspan x="109.032715" y="-0.960938" style="font-size: 9px; font-family: 'Arial'">i</tspan>
       <tspan x="111.032227" y="-0.960938" style="font-size: 9px; font-family: 'Arial'">n</tspan>
       <tspan x="116.037598" y="-0.960938" style="font-size: 9px; font-family: 'Arial'">d</tspan>
       <tspan x="121.042969" y="-0.960938" style="font-size: 9px; font-family: 'Arial'"> </tspan>
       <tspan x="123.543457" y="-0.960938" style="font-size: 9px; font-family: 'Arial'">(</tspan>
       <tspan x="126.540527" y="-0.960938" style="font-size: 9px; font-family: 'Arial'">m</tspan>
       <tspan x="134.037598" y="-0.960938" style="font-size: 9px; font-family: 'Arial'"> </tspan>
       <tspan x="136.538086" y="-0.960938" style="font-size: 9px; font-family: 'Arial'">s</tspan>
       <tspan x="150.657275" y="-0.960938" style="font-size: 9px; font-family: 'Arial'">)</tspan>
       <tspan x="141.124219" y="-4.40625" style="font-size: 6.3px; font-family: 'DejaVu Sans'">−</tspan>
       <tspan x="146.40293" y="-4.40625" style="font-size: 6.3px; font-family: 'DejaVu Sans'">1</tspan>
      </text>
     </g>
    </g>
   </g>
   <g id="matplotlib.axis_2">
    <g id="ytick_1">
     <g id="line2d_9">
      <defs>
       <path id="mfda6a4a7e5" d="M 0 0 
L -3.5 0 
" style="stroke: #000000; stroke-width: 0.8"/>
      </defs>
      <g>
       <use xlink:href="#mfda6a4a7e5" x="39.04625" y="195.088739" style="stroke: #000000; stroke-width: 0.8"/>
      </g>
     </g>
     <g id="text_10">
      <text style="font-size: 9px; font-family: 'Arial', 'Helvetica', 'DejaVu Sans', sans-serif; text-anchor: end" x="32.04625" y="198.309754" transform="rotate(-0 32.04625 198.309754)">0.0</text>
     </g>
    </g>
    <g id="ytick_2">
     <g id="line2d_10">
      <g>
       <use xlink:href="#mfda6a4a7e5" x="39.04625" y="163.984609" style="stroke: #000000; stroke-width: 0.8"/>
      </g>
     </g>
     <g id="text_11">
      <text style="font-size: 9px; font-family: 'Arial', 'Helvetica', 'DejaVu Sans', sans-serif; text-anchor: end" x="32.04625" y="167.205624" transform="rotate(-0 32.04625 167.205624)">0.1</text>
     </g>
    </g>
    <g id="ytick_3">
     <g id="line2d_11">
      <g>
       <use xlink:href="#mfda6a4a7e5" x="39.04625" y="132.880478" style="stroke: #000000; stroke-width: 0.8"/>
      </g>
     </g>
     <g id="text_12">
      <text style="font-size: 9px; font-family: 'Arial', 'Helvetica', 'DejaVu Sans', sans-serif; text-anchor: end" x="32.04625" y="136.101494" transform="rotate(-0 32.04625 136.101494)">0.2</text>
     </g>
    </g>
    <g id="ytick_4">
     <g id="line2d_12">
      <g>
       <use xlink:href="#mfda6a4a7e5" x="39.04625" y="101.776348" style="stroke: #000000; stroke-width: 0.8"/>
      </g>
     </g>
     <g id="text_13">
      <text style="font-size: 9px; font-family: 'Arial', 'Helvetica', 'DejaVu Sans', sans-serif; text-anchor: end" x="32.04625" y="104.997364" transform="rotate(-0 32.04625 104.997364)">0.3</text>
     </g>
    </g>
    <g id="ytick_5">
     <g id="line2d_13">
      <g>
       <use xlink:href="#mfda6a4a7e5" x="39.04625" y="70.672218" style="stroke: #000000; stroke-width: 0.8"/>
      </g>
     </g>
     <g id="text_14">
      <text style="font-size: 9px; font-family: 'Arial', 'Helvetica', 'DejaVu Sans', sans-serif; text-anchor: end" x="32.04625" y="73.893234" transform="rotate(-0 32.04625 73.893234)">0.4</text>
     </g>
    </g>
    <g id="ytick_6">
     <g id="line2d_14">
      <g>
       <use xlink:href="#mfda6a4a7e5" x="39.04625" y="39.568088" style="stroke: #000000; stroke-width: 0.8"/>
      </g>
     </g>
     <g id="text_15">
      <text style="font-size: 9px; font-family: 'Arial', 'Helvetica', 'DejaVu Sans', sans-serif; text-anchor: end" x="32.04625" y="42.789104" transform="rotate(-0 32.04625 42.789104)">0.5</text>
     </g>
    </g>
    <g id="text_16">
     <text style="font-size: 9px; font-family: 'Arial', 'Helvetica', 'DejaVu Sans', sans-serif; text-anchor: middle" x="13.642031" y="108.009588" transform="rotate(-90 13.642031 108.009588)">Probability density</text>
    </g>
   </g>
   <g id="patch_3">
    <path d="M 48.994016 195.088739 
L 48.994016 195.088739 
L 53.846585 195.088739 
L 53.846585 195.088739 
L 58.699153 195.088739 
L 58.699153 195.088739 
L 63.551722 195.088739 
L 63.551722 194.622826 
L 68.404291 194.622826 
L 68.404291 195.088739 
L 73.256859 195.088739 
L 73.256859 194.622826 
L 78.109428 194.622826 
L 78.109428 195.088739 
L 82.961997 195.088739 
L 82.961997 195.088739 
L 87.814565 195.088739 
L 87.814565 194.622826 
L 92.667134 194.622826 
L 92.667134 195.088739 
L 97.519703 195.088739 
L 97.519703 194.622826 
L 102.372271 194.622826 
L 102.372271 194.622826 
L 107.22484 194.622826 
L 107.22484 195.088739 
L 112.077409 195.088739 
L 112.077409 194.622826 
L 116.929978 194.622826 
L 116.929978 194.156913 
L 121.782546 194.156913 
L 121.782546 192.29326 
L 126.635115 192.29326 
L 126.635115 192.29326 
L 131.487684 192.29326 
L 131.487684 190.895521 
L 136.340252 190.895521 
L 136.340252 185.770478 
L 141.192821 185.770478 
L 141.192821 182.043173 
L 146.04539 182.043173 
L 146.04539 170.86126 
L 150.897958 170.86126 
L 150.897958 145.236041 
L 155.750527 145.236041 
L 155.750527 89.792388 
L 160.603096 89.792388 
L 160.603096 42.269256 
L 165.455664 42.269256 
L 165.455664 29.22369 
L 170.308233 29.22369 
L 170.308233 94.451518 
L 175.160802 94.451518 
L 175.160802 161.542999 
L 180.013371 161.542999 
L 180.013371 176.918129 
L 184.865939 176.918129 
L 184.865939 183.906825 
L 189.718508 183.906825 
L 189.718508 188.565956 
L 194.571077 188.565956 
L 194.571077 192.759173 
L 199.423645 192.759173 
L 199.423645 193.225087 
L 204.276214 193.225087 
L 204.276214 192.759173 
L 209.128783 192.759173 
L 209.128783 193.691 
L 213.981351 193.691 
L 213.981351 194.622826 
L 218.83392 194.622826 
L 218.83392 194.622826 
L 223.686489 194.622826 
L 223.686489 195.088739 
L 228.539058 195.088739 
L 228.539058 195.088739 
L 233.391626 195.088739 
L 233.391626 195.088739 
L 238.244195 195.088739 
L 238.244195 195.088739 
L 243.096764 195.088739 
L 243.096764 195.088739 
L 247.949332 195.088739 
L 247.949332 195.088739 
" clip-path="url(#pf213bb5db4)" style="fill: none; stroke: #2878b5; stroke-width: 2; stroke-linejoin: miter"/>
   </g>
   <g id="patch_4">
    <path d="M 48.994016 195.088739 
L 48.994016 194.622826 
L 53.846585 194.622826 
L 53.846585 195.088739 
L 58.699153 195.088739 
L 58.699153 194.622826 
L 63.551722 194.622826 
L 63.551722 194.622826 
L 68.404291 194.622826 
L 68.404291 195.088739 
L 73.256859 195.088739 
L 73.256859 194.622826 
L 78.109428 194.622826 
L 78.109428 194.156913 
L 82.961997 194.156913 
L 82.961997 192.759173 
L 87.814565 192.759173 
L 87.814565 192.29326 
L 92.667134 192.29326 
L 92.667134 189.963695 
L 97.519703 189.963695 
L 97.519703 189.963695 
L 102.372271 189.963695 
L 102.372271 186.236391 
L 107.22484 186.236391 
L 107.22484 186.236391 
L 112.077409 186.236391 
L 112.077409 172.724912 
L 116.929978 172.724912 
L 116.929978 182.509086 
L 121.782546 182.509086 
L 121.782546 173.190825 
L 126.635115 173.190825 
L 126.635115 170.395347 
L 131.487684 170.395347 
L 131.487684 166.668042 
L 136.340252 166.668042 
L 136.340252 162.008912 
L 141.192821 162.008912 
L 141.192821 159.679346 
L 146.04539 159.679346 
L 146.04539 155.952042 
L 150.897958 155.952042 
L 150.897958 148.03152 
L 155.750527 148.03152 
L 155.750527 143.372389 
L 160.603096 143.372389 
L 160.603096 137.781433 
L 165.455664 137.781433 
L 165.455664 144.304215 
L 170.308233 144.304215 
L 170.308233 138.247346 
L 175.160802 138.247346 
L 175.160802 146.633781 
L 180.013371 146.633781 
L 180.013371 155.952042 
L 184.865939 155.952042 
L 184.865939 161.542999 
L 189.718508 161.542999 
L 189.718508 171.327173 
L 194.571077 171.327173 
L 194.571077 177.384043 
L 199.423645 177.384043 
L 199.423645 182.974999 
L 204.276214 182.974999 
L 204.276214 187.63413 
L 209.128783 187.63413 
L 209.128783 187.63413 
L 213.981351 187.63413 
L 213.981351 194.156913 
L 218.83392 194.156913 
L 218.83392 193.225087 
L 223.686489 193.225087 
L 223.686489 194.622826 
L 228.539058 194.622826 
L 228.539058 194.156913 
L 233.391626 194.156913 
L 233.391626 193.691 
L 238.244195 193.691 
L 238.244195 195.088739 
L 243.096764 195.088739 
L 243.096764 194.622826 
L 247.949332 194.622826 
L 247.949332 195.088739 
" clip-path="url(#pf213bb5db4)" style="fill: none; stroke: #e07b39; stroke-width: 2; stroke-linejoin: miter"/>
   </g>
   <g id="line2d_15">
    <path d="M 152.694257 195.088739 
L 152.694257 20.930438 
" clip-path="url(#pf213bb5db4)" style="fill: none; stroke-dasharray: 3.33,1.44; stroke-dashoffset: 0; stroke: #000000; stroke-width: 0.9"/>
   </g>
   <g id="patch_5">
    <path d="M 39.04625 195.088739 
L 39.04625 20.930438 
" style="fill: none; stroke: #000000; stroke-width: 0.8; stroke-linejoin: miter; stroke-linecap: square"/>
   </g>
   <g id="patch_6">
    <path d="M 39.04625 195.088739 
L 257.897098 195.088739 
" style="fill: none; stroke: #000000; stroke-width: 0.8; stroke-linejoin: miter; stroke-linecap: square"/>
   </g>
   <g id="text_17">
    <text style="font-size: 10.8px; font-family: 'Arial', 'Helvetica', 'DejaVu Sans', sans-serif; text-anchor: middle" x="148.471674" y="14.930438" transform="rotate(-0 148.471674 14.930438)">a  Positive means ocean→land</text>
   </g>
   <g id="legend_1">
    <g id="patch_7">
     <path d="M 120.274911 119.130838 
L 252.997098 119.130838 
Q 254.397098 119.130838 254.397098 117.730838 
L 254.397098 98.288338 
Q 254.397098 96.888338 252.997098 96.888338 
L 120.274911 96.888338 
Q 118.874911 96.888338 118.874911 98.288338 
L 118.874911 117.730838 
Q 118.874911 119.130838 120.274911 119.130838 
z
" style="fill: #ffffff; opacity: 0.8; stroke: #cccccc; stroke-linejoin: miter"/>
    </g>
    <g id="patch_8">
     <path d="M 121.674911 104.788494 
L 135.674911 104.788494 
L 135.674911 99.888494 
L 121.674911 99.888494 
L 121.674911 104.788494 
z
" style="fill: none; stroke: #2878b5; stroke-width: 2; stroke-linejoin: miter"/>
    </g>
    <g id="text_18">
     <text style="font-size: 7px; font-family: 'Arial', 'Helvetica', 'DejaVu Sans', sans-serif; text-anchor: start" x="141.274911" y="104.788494" transform="rotate(-0 141.274911 104.788494)">West (Oregon): onshore 89.1±4.3%</text>
    </g>
    <g id="patch_9">
     <path d="M 121.674911 114.857557 
L 135.674911 114.857557 
L 135.674911 109.957557 
L 121.674911 109.957557 
L 121.674911 114.857557 
z
" style="fill: none; stroke: #e07b39; stroke-width: 2; stroke-linejoin: miter"/>
    </g>
    <g id="text_19">
     <text style="font-size: 7px; font-family: 'Arial', 'Helvetica', 'DejaVu Sans', sans-serif; text-anchor: start" x="141.274911" y="114.857557" transform="rotate(-0 141.274911 114.857557)">East (Maine): onshore 62.1±2.8%</text>
    </g>
   </g>
  </g>
  <g id="axes_2">
   <g id="patch_10">
    <path d="M 300.748672 195.088739 
L 519.59952 195.088739 
L 519.59952 20.930438 
L 300.748672 20.930438 
z
" style="fill: #ffffff"/>
   </g>
   <g id="matplotlib.axis_3">
    <g id="xtick_9">
     <g id="line2d_16">
      <g>
       <use xlink:href="#m85f4773468" x="311.542424" y="195.088739" style="stroke: #000000; stroke-width: 0.8"/>
      </g>
     </g>
     <g id="text_20">
      <text style="font-size: 9px; font-family: 'Arial', 'Helvetica', 'DejaVu Sans', sans-serif; text-anchor: middle" x="311.542424" y="208.53077" transform="rotate(-0 311.542424 208.53077)">−12.5</text>
     </g>
    </g>
    <g id="xtick_10">
     <g id="line2d_17">
      <g>
       <use xlink:href="#m85f4773468" x="342.350704" y="195.088739" style="stroke: #000000; stroke-width: 0.8"/>
      </g>
     </g>
     <g id="text_21">
      <text style="font-size: 9px; font-family: 'Arial', 'Helvetica', 'DejaVu Sans', sans-serif; text-anchor: middle" x="342.350704" y="208.53077" transform="rotate(-0 342.350704 208.53077)">−10.0</text>
     </g>
    </g>
    <g id="xtick_11">
     <g id="line2d_18">
      <g>
       <use xlink:href="#m85f4773468" x="373.158984" y="195.088739" style="stroke: #000000; stroke-width: 0.8"/>
      </g>
     </g>
     <g id="text_22">
      <text style="font-size: 9px; font-family: 'Arial', 'Helvetica', 'DejaVu Sans', sans-serif; text-anchor: middle" x="373.158984" y="208.53077" transform="rotate(-0 373.158984 208.53077)">−7.5</text>
     </g>
    </g>
    <g id="xtick_12">
     <g id="line2d_19">
      <g>
       <use xlink:href="#m85f4773468" x="403.967264" y="195.088739" style="stroke: #000000; stroke-width: 0.8"/>
      </g>
     </g>
     <g id="text_23">
      <text style="font-size: 9px; font-family: 'Arial', 'Helvetica', 'DejaVu Sans', sans-serif; text-anchor: middle" x="403.967264" y="208.53077" transform="rotate(-0 403.967264 208.53077)">−5.0</text>
     </g>
    </g>
    <g id="xtick_13">
     <g id="line2d_20">
      <g>
       <use xlink:href="#m85f4773468" x="434.775543" y="195.088739" style="stroke: #000000; stroke-width: 0.8"/>
      </g>
     </g>
     <g id="text_24">
      <text style="font-size: 9px; font-family: 'Arial', 'Helvetica', 'DejaVu Sans', sans-serif; text-anchor: middle" x="434.775543" y="208.53077" transform="rotate(-0 434.775543 208.53077)">−2.5</text>
     </g>
    </g>
    <g id="xtick_14">
     <g id="line2d_21">
      <g>
       <use xlink:href="#m85f4773468" x="465.583823" y="195.088739" style="stroke: #000000; stroke-width: 0.8"/>
      </g>
     </g>
     <g id="text_25">
      <text style="font-size: 9px; font-family: 'Arial', 'Helvetica', 'DejaVu Sans', sans-serif; text-anchor: middle" x="465.583823" y="208.53077" transform="rotate(-0 465.583823 208.53077)">0.0</text>
     </g>
    </g>
    <g id="xtick_15">
     <g id="line2d_22">
      <g>
       <use xlink:href="#m85f4773468" x="496.392103" y="195.088739" style="stroke: #000000; stroke-width: 0.8"/>
      </g>
     </g>
     <g id="text_26">
      <text style="font-size: 9px; font-family: 'Arial', 'Helvetica', 'DejaVu Sans', sans-serif; text-anchor: middle" x="496.392103" y="208.53077" transform="rotate(-0 496.392103 208.53077)">2.5</text>
     </g>
    </g>
    <g id="text_27">
     <!-- $T_{ao}-T_{al}$ on onshore days (K) -->
     <g transform="translate(350.459096 220.88952)">
      <text>
       <tspan x="0" y="-0.4375" style="font-style: oblique; font-size: 9px; font-family: 'DejaVu Sans'">T</tspan>
       <tspan x="24.506543" y="-0.4375" style="font-style: oblique; font-size: 9px; font-family: 'DejaVu Sans'">T</tspan>
       <tspan x="5.497559" y="1.039062" style="font-style: oblique; font-size: 6.3px; font-family: 'DejaVu Sans'">a</tspan>
       <tspan x="9.358154" y="1.039062" style="font-style: oblique; font-size: 6.3px; font-family: 'DejaVu Sans'">o</tspan>
       <tspan x="30.004102" y="1.039062" style="font-style: oblique; font-size: 6.3px; font-family: 'DejaVu Sans'">a</tspan>
       <tspan x="33.864697" y="1.039062" style="font-style: oblique; font-size: 6.3px; font-family: 'DejaVu Sans'">l</tspan>
       <tspan x="15.212109" y="-0.4375" style="font-size: 9px; font-family: 'DejaVu Sans'">−</tspan>
       <tspan x="35.861133" y="-0.4375" style="font-size: 9px; font-family: 'Arial'"> </tspan>
       <tspan x="38.361621" y="-0.4375" style="font-size: 9px; font-family: 'Arial'">o</tspan>
       <tspan x="43.366992" y="-0.4375" style="font-size: 9px; font-family: 'Arial'">n</tspan>
       <tspan x="48.372363" y="-0.4375" style="font-size: 9px; font-family: 'Arial'"> </tspan>
       <tspan x="50.872852" y="-0.4375" style="font-size: 9px; font-family: 'Arial'">o</tspan>
       <tspan x="55.878223" y="-0.4375" style="font-size: 9px; font-family: 'Arial'">n</tspan>
       <tspan x="60.883594" y="-0.4375" style="font-size: 9px; font-family: 'Arial'">s</tspan>
       <tspan x="65.383594" y="-0.4375" style="font-size: 9px; font-family: 'Arial'">h</tspan>
       <tspan x="70.388965" y="-0.4375" style="font-size: 9px; font-family: 'Arial'">o</tspan>
       <tspan x="75.394336" y="-0.4375" style="font-size: 9px; font-family: 'Arial'">r</tspan>
       <tspan x="78.391406" y="-0.4375" style="font-size: 9px; font-family: 'Arial'">e</tspan>
       <tspan x="83.396777" y="-0.4375" style="font-size: 9px; font-family: 'Arial'"> </tspan>
       <tspan x="85.897266" y="-0.4375" style="font-size: 9px; font-family: 'Arial'">d</tspan>
       <tspan x="90.902637" y="-0.4375" style="font-size: 9px; font-family: 'Arial'">a</tspan>
       <tspan x="95.908008" y="-0.4375" style="font-size: 9px; font-family: 'Arial'">y</tspan>
       <tspan x="100.408008" y="-0.4375" style="font-size: 9px; font-family: 'Arial'">s</tspan>
       <tspan x="104.908008" y="-0.4375" style="font-size: 9px; font-family: 'Arial'"> </tspan>
       <tspan x="107.408496" y="-0.4375" style="font-size: 9px; font-family: 'Arial'">(</tspan>
       <tspan x="110.405566" y="-0.4375" style="font-size: 9px; font-family: 'Arial'">K</tspan>
       <tspan x="116.408496" y="-0.4375" style="font-size: 9px; font-family: 'Arial'">)</tspan>
      </text>
     </g>
    </g>
   </g>
   <g id="matplotlib.axis_4">
    <g id="ytick_7">
     <g id="line2d_23">
      <g>
       <use xlink:href="#mfda6a4a7e5" x="300.748672" y="195.088739" style="stroke: #000000; stroke-width: 0.8"/>
      </g>
     </g>
     <g id="text_28">
      <text style="font-size: 9px; font-family: 'Arial', 'Helvetica', 'DejaVu Sans', sans-serif; text-anchor: end" x="293.748672" y="198.309754" transform="rotate(-0 293.748672 198.309754)">0.00</text>
     </g>
    </g>
    <g id="ytick_8">
     <g id="line2d_24">
      <g>
       <use xlink:href="#mfda6a4a7e5" x="300.748672" y="163.10563" style="stroke: #000000; stroke-width: 0.8"/>
      </g>
     </g>
     <g id="text_29">
      <text style="font-size: 9px; font-family: 'Arial', 'Helvetica', 'DejaVu Sans', sans-serif; text-anchor: end" x="293.748672" y="166.326646" transform="rotate(-0 293.748672 166.326646)">0.05</text>
     </g>
    </g>
    <g id="ytick_9">
     <g id="line2d_25">
      <g>
       <use xlink:href="#mfda6a4a7e5" x="300.748672" y="131.122521" style="stroke: #000000; stroke-width: 0.8"/>
      </g>
     </g>
     <g id="text_30">
      <text style="font-size: 9px; font-family: 'Arial', 'Helvetica', 'DejaVu Sans', sans-serif; text-anchor: end" x="293.748672" y="134.343537" transform="rotate(-0 293.748672 134.343537)">0.10</text>
     </g>
    </g>
    <g id="ytick_10">
     <g id="line2d_26">
      <g>
       <use xlink:href="#mfda6a4a7e5" x="300.748672" y="99.139413" style="stroke: #000000; stroke-width: 0.8"/>
      </g>
     </g>
     <g id="text_31">
      <text style="font-size: 9px; font-family: 'Arial', 'Helvetica', 'DejaVu Sans', sans-serif; text-anchor: end" x="293.748672" y="102.360428" transform="rotate(-0 293.748672 102.360428)">0.15</text>
     </g>
    </g>
    <g id="ytick_11">
     <g id="line2d_27">
      <g>
       <use xlink:href="#mfda6a4a7e5" x="300.748672" y="67.156304" style="stroke: #000000; stroke-width: 0.8"/>
      </g>
     </g>
     <g id="text_32">
      <text style="font-size: 9px; font-family: 'Arial', 'Helvetica', 'DejaVu Sans', sans-serif; text-anchor: end" x="293.748672" y="70.37732" transform="rotate(-0 293.748672 70.37732)">0.20</text>
     </g>
    </g>
    <g id="ytick_12">
     <g id="line2d_28">
      <g>
       <use xlink:href="#mfda6a4a7e5" x="300.748672" y="35.173195" style="stroke: #000000; stroke-width: 0.8"/>
      </g>
     </g>
     <g id="text_33">
      <text style="font-size: 9px; font-family: 'Arial', 'Helvetica', 'DejaVu Sans', sans-serif; text-anchor: end" x="293.748672" y="38.394211" transform="rotate(-0 293.748672 38.394211)">0.25</text>
     </g>
    </g>
    <g id="text_34">
     <text style="font-size: 9px; font-family: 'Arial', 'Helvetica', 'DejaVu Sans', sans-serif; text-anchor: middle" x="270.339609" y="108.009588" transform="rotate(-90 270.339609 108.009588)">Probability density</text>
    </g>
   </g>
   <g id="patch_11">
    <path d="M 310.696438 195.088739 
L 310.696438 193.896918 
L 315.549003 193.896918 
L 315.549003 195.088739 
L 320.401579 195.088739 
L 320.401579 195.088739 
L 325.254144 195.088739 
L 325.254144 193.896918 
L 330.106709 193.896918 
L 330.106709 193.896918 
L 334.959274 193.896918 
L 334.959274 193.896921 
L 339.811851 193.896921 
L 339.811851 195.088739 
L 344.664416 195.088739 
L 344.664416 193.896918 
L 349.516981 193.896918 
L 349.516981 192.705103 
L 354.369558 192.705103 
L 354.369558 193.896918 
L 359.222123 193.896918 
L 359.222123 191.513277 
L 364.074688 191.513277 
L 364.074688 191.513286 
L 368.927264 191.513286 
L 368.927264 192.705098 
L 373.779829 192.705098 
L 373.779829 184.362366 
L 378.6324 184.362366 
L 378.6324 181.978712 
L 383.484965 181.978712 
L 383.484965 180.786909 
L 388.337536 180.786909 
L 388.337536 186.746004 
L 393.190107 186.746004 
L 393.190107 185.554174 
L 398.042672 185.554174 
L 398.042672 170.060536 
L 402.895243 170.060536 
L 402.895243 174.827788 
L 407.747808 174.827788 
L 407.747808 158.142389 
L 412.600384 158.142389 
L 412.600384 159.33412 
L 417.452949 159.33412 
L 417.452949 147.415914 
L 422.305514 147.415914 
L 422.305514 140.265123 
L 427.158091 140.265123 
L 427.158091 114.044936 
L 432.010656 114.044936 
L 432.010656 104.510371 
L 436.863221 104.510371 
L 436.863221 77.098497 
L 441.715786 77.098497 
L 441.715786 86.633325 
L 446.568363 86.633325 
L 446.568363 85.441241 
L 451.420928 85.441241 
L 451.420928 79.482138 
L 456.273493 79.482138 
L 456.273493 71.139694 
L 461.126069 71.139694 
L 461.126069 75.906676 
L 465.978634 75.906676 
L 465.978634 86.633062 
L 470.831199 86.633062 
L 470.831199 100.935138 
L 475.683776 100.935138 
L 475.683776 100.93491 
L 480.536341 100.93491 
L 480.536341 125.963143 
L 485.388906 125.963143 
L 485.388906 149.799665 
L 490.241483 149.799665 
L 490.241483 170.060506 
L 495.094048 170.060506 
L 495.094048 179.595071 
L 499.946612 179.595071 
L 499.946612 189.129636 
L 504.799177 189.129636 
L 504.799177 190.321468 
L 509.651754 190.321468 
L 509.651754 195.088739 
" clip-path="url(#p06bd4b3293)" style="fill: none; stroke: #2878b5; stroke-width: 2; stroke-linejoin: miter"/>
   </g>
   <g id="patch_12">
    <path d="M 310.696438 195.088739 
L 310.696438 195.088739 
L 315.549003 195.088739 
L 315.549003 195.088739 
L 320.401579 195.088739 
L 320.401579 195.088739 
L 325.254144 195.088739 
L 325.254144 195.088739 
L 330.106709 195.088739 
L 330.106709 195.088739 
L 334.959274 195.088739 
L 334.959274 195.088739 
L 339.811851 195.088739 
L 339.811851 195.088739 
L 344.664416 195.088739 
L 344.664416 195.088739 
L 349.516981 195.088739 
L 349.516981 195.088739 
L 354.369558 195.088739 
L 354.369558 195.088739 
L 359.222123 195.088739 
L 359.222123 189.958892 
L 364.074688 189.958892 
L 364.074688 188.248959 
L 368.927264 188.248959 
L 368.927264 191.668841 
L 373.779829 191.668841 
L 373.779829 186.539004 
L 378.6324 186.539004 
L 378.6324 184.829045 
L 383.484965 184.829045 
L 383.484965 172.859429 
L 388.337536 172.859429 
L 388.337536 164.309695 
L 393.190107 164.309695 
L 393.190107 126.69078 
L 398.042672 126.69078 
L 398.042672 114.721235 
L 402.895243 114.721235 
L 402.895243 80.522159 
L 407.747808 80.522159 
L 407.747808 61.713043 
L 412.600384 61.713043 
L 412.600384 66.842567 
L 417.452949 66.842567 
L 417.452949 37.773435 
L 422.305514 37.773435 
L 422.305514 41.193705 
L 427.158091 41.193705 
L 427.158091 29.22369 
L 432.010656 29.22369 
L 432.010656 71.972414 
L 436.863221 71.972414 
L 436.863221 39.483384 
L 441.715786 39.483384 
L 441.715786 123.271056 
L 446.568363 123.271056 
L 446.568363 135.240525 
L 451.420928 135.240525 
L 451.420928 147.210168 
L 456.273493 147.210168 
L 456.273493 167.729622 
L 461.126069 167.729622 
L 461.126069 176.2793 
L 465.978634 176.2793 
L 465.978634 181.409147 
L 470.831199 181.409147 
L 470.831199 188.248959 
L 475.683776 188.248959 
L 475.683776 188.248943 
L 480.536341 188.248943 
L 480.536341 195.088739 
L 485.388906 195.088739 
L 485.388906 193.378794 
L 490.241483 193.378794 
L 490.241483 195.088739 
L 495.094048 195.088739 
L 495.094048 193.37879 
L 499.946612 193.37879 
L 499.946612 195.088739 
L 504.799177 195.088739 
L 504.799177 195.088739 
L 509.651754 195.088739 
L 509.651754 195.088739 
" clip-path="url(#p06bd4b3293)" style="fill: none; stroke: #e07b39; stroke-width: 2; stroke-linejoin: miter"/>
   </g>
   <g id="line2d_29">
    <path d="M 465.583823 195.088739 
L 465.583823 20.930438 
" clip-path="url(#p06bd4b3293)" style="fill: none; stroke-dasharray: 3.33,1.44; stroke-dashoffset: 0; stroke: #000000; stroke-width: 0.9"/>
   </g>
   <g id="patch_13">
    <path d="M 300.748672 195.088739 
L 300.748672 20.930438 
" style="fill: none; stroke: #000000; stroke-width: 0.8; stroke-linejoin: miter; stroke-linecap: square"/>
   </g>
   <g id="patch_14">
    <path d="M 300.748672 195.088739 
L 519.59952 195.088739 
" style="fill: none; stroke: #000000; stroke-width: 0.8; stroke-linejoin: miter; stroke-linecap: square"/>
   </g>
   <g id="text_35">
    <text style="font-size: 10.8px; font-family: 'Arial', 'Helvetica', 'DejaVu Sans', sans-serif; text-anchor: middle" x="410.174096" y="14.930438" transform="rotate(-0 410.174096 14.930438)">b  Negative means marine cooling</text>
   </g>
   <g id="legend_2">
    <g id="patch_15">
     <path d="M 305.648672 46.672938 
L 431.362109 46.672938 
Q 432.762109 46.672938 432.762109 45.272938 
L 432.762109 25.830438 
Q 432.762109 24.430438 431.362109 24.430438 
L 305.648672 24.430438 
Q 304.248672 24.430438 304.248672 25.830438 
L 304.248672 45.272938 
Q 304.248672 46.672938 305.648672 46.672938 
z
" style="fill: #ffffff; opacity: 0.8; stroke: #cccccc; stroke-linejoin: miter"/>
    </g>
    <g id="patch_16">
     <path d="M 307.048672 32.330594 
L 321.048672 32.330594 
L 321.048672 27.430594 
L 307.048672 27.430594 
L 307.048672 32.330594 
z
" style="fill: none; stroke: #2878b5; stroke-width: 2; stroke-linejoin: miter"/>
    </g>
    <g id="text_36">
     <text style="font-size: 7px; font-family: 'Arial', 'Helvetica', 'DejaVu Sans', sans-serif; text-anchor: start" x="326.648672" y="32.330594" transform="rotate(-0 326.648672 32.330594)">West (Oregon): active 63.0±9.3%</text>
    </g>
    <g id="patch_17">
     <path d="M 307.048672 42.399656 
L 321.048672 42.399656 
L 321.048672 37.499656 
L 307.048672 37.499656 
L 307.048672 42.399656 
z
" style="fill: none; stroke: #e07b39; stroke-width: 2; stroke-linejoin: miter"/>
    </g>
    <g id="text_37">
     <text style="font-size: 7px; font-family: 'Arial', 'Helvetica', 'DejaVu Sans', sans-serif; text-anchor: start" x="326.648672" y="42.399656" transform="rotate(-0 326.648672 42.399656)">East (Maine): active 60.8±2.5%</text>
    </g>
   </g>
  </g>
 </g>
 <defs>
  <clipPath id="pf213bb5db4">
   <rect x="39.04625" y="20.930438" width="218.850848" height="174.158301"/>
  </clipPath>
  <clipPath id="p06bd4b3293">
   <rect x="300.748672" y="20.930438" width="218.850848" height="174.158301"/>
  </clipPath>
 </defs>
</svg>
